{"ontrolChanges":[],"keySignatures":[],"notes":[{"pitch":36,"quantizedStartStep":0,"quantizedEndStep":1,"isDrum":true,"velocity":100},{"pitch":38,"quantizedStartStep":1,"quantizedEndStep":2,"isDrum":true,"velocity":100},{"pitch":36,"quantizedStartStep":2,"quantizedEndStep":3,"isDrum":true,"velocity":100},{"pitch":42,"quantizedStartStep":4,"quantizedEndStep":5,"isDrum":true,"velocity":100},{"pitch":51,"quantizedStartStep":5,"quantizedEndStep":6,"isDrum":true,"velocity":100},{"pitch":36,"quantizedStartStep":6,"quantizedEndStep":7,"isDrum":true,"velocity":100},{"pitch":38,"quantizedStartStep":8,"quantizedEndStep":9,"isDrum":true,"velocity":100},{"pitch":42,"quantizedStartStep":8,"quantizedEndStep":9,"isDrum":true,"velocity":100},{"pitch":46,"quantizedStartStep":8,"quantizedEndStep":9,"isDrum":true,"velocity":100},{"pitch":38,"quantizedStartStep":9,"quantizedEndStep":10,"isDrum":true,"velocity":100},{"pitch":46,"quantizedStartStep":9,"quantizedEndStep":10,"isDrum":true,"velocity":100},{"pitch":42,"quantizedStartStep":10,"quantizedEndStep":11,"isDrum":true,"velocity":100},{"pitch":38,"quantizedStartStep":11,"quantizedEndStep":12,"isDrum":true,"velocity":100},{"pitch":42,"quantizedStartStep":11,"quantizedEndStep":12,"isDrum":true,"velocity":100},{"pitch":36,"quantizedStartStep":12,"quantizedEndStep":13,"isDrum":true,"velocity":100},{"pitch":46,"quantizedStartStep":12,"quantizedEndStep":13,"isDrum":true,"velocity":100},{"pitch":36,"quantizedStartStep":13,"quantizedEndStep":14,"isDrum":true,"velocity":100},{"pitch":38,"quantizedStartStep":13,"quantizedEndStep":14,"isDrum":true,"velocity":100},{"pitch":46,"quantizedStartStep":13,"quantizedEndStep":14,"isDrum":true,"velocity":100},{"pitch":36,"quantizedStartStep":14,"quantizedEndStep":15,"isDrum":true,"velocity":100},{"pitch":38,"quantizedStartStep":14,"quantizedEndStep":15,"isDrum":true,"velocity":100},{"pitch":48,"quantizedStartStep":14,"quantizedEndStep":15,"isDrum":true,"velocity":100},{"pitch":45,"quantizedStartStep":15,"quantizedEndStep":16,"isDrum":true,"velocity":100},{"pitch":50,"quantizedStartStep":15,"quantizedEndStep":16,"isDrum":true,"velocity":100},{"pitch":46,"quantizedStartStep":16,"quantizedEndStep":17,"isDrum":true,"velocity":100},{"pitch":50,"quantizedStartStep":16,"quantizedEndStep":17,"isDrum":true,"velocity":100},{"pitch":46,"quantizedStartStep":17,"quantizedEndStep":18,"isDrum":true,"velocity":100},{"pitch":50,"quantizedStartStep":17,"quantizedEndStep":18,"isDrum":true,"velocity":100},{"pitch":42,"quantizedStartStep":18,"quantizedEndStep":19,"isDrum":true,"velocity":100},{"pitch":36,"quantizedStartStep":19,"quantizedEndStep":20,"isDrum":true,"velocity":100},{"pitch":42,"quantizedStartStep":19,"quantizedEndStep":20,"isDrum":true,"velocity":100},{"pitch":46,"quantizedStartStep":20,"quantizedEndStep":21,"isDrum":true,"velocity":100},{"pitch":45,"quantizedStartStep":20,"quantizedEndStep":21,"isDrum":true,"velocity":100},{"pitch":42,"quantizedStartStep":21,"quantizedEndStep":22,"isDrum":true,"velocity":100},{"pitch":48,"quantizedStartStep":21,"quantizedEndStep":22,"isDrum":true,"velocity":100},{"pitch":46,"quantizedStartStep":22,"quantizedEndStep":23,"isDrum":true,"velocity":100},{"pitch":45,"quantizedStartStep":22,"quantizedEndStep":23,"isDrum":true,"velocity":100},{"pitch":45,"quantizedStartStep":23,"quantizedEndStep":24,"isDrum":true,"velocity":100},{"pitch":46,"quantizedStartStep":24,"quantizedEndStep":25,"isDrum":true,"velocity":100},{"pitch":48,"quantizedStartStep":24,"quantizedEndStep":25,"isDrum":true,"velocity":100},{"pitch":50,"quantizedStartStep":24,"quantizedEndStep":25,"isDrum":true,"velocity":100},{"pitch":38,"quantizedStartStep":25,"quantizedEndStep":26,"isDrum":true,"velocity":100},{"pitch":42,"quantizedStartStep":25,"quantizedEndStep":26,"isDrum":true,"velocity":100},{"pitch":46,"quantizedStartStep":25,"quantizedEndStep":26,"isDrum":true,"velocity":100},{"pitch":45,"quantizedStartStep":25,"quantizedEndStep":26,"isDrum":true,"velocity":100},{"pitch":49,"quantizedStartStep":25,"quantizedEndStep":26,"isDrum":true,"velocity":100},{"pitch":46,"quantizedStartStep":26,"quantizedEndStep":27,"isDrum":true,"velocity":100},{"pitch":45,"quantizedStartStep":26,"quantizedEndStep":27,"isDrum":true,"velocity":100},{"pitch":50,"quantizedStartStep":26,"quantizedEndStep":27,"isDrum":true,"velocity":100},{"pitch":36,"quantizedStartStep":27,"quantizedEndStep":28,"isDrum":true,"velocity":100},{"pitch":38,"quantizedStartStep":27,"quantizedEndStep":28,"isDrum":true,"velocity":100},{"pitch":48,"quantizedStartStep":27,"quantizedEndStep":28,"isDrum":true,"velocity":100},{"pitch":50,"quantizedStartStep":27,"quantizedEndStep":28,"isDrum":true,"velocity":100},{"pitch":42,"quantizedStartStep":28,"quantizedEndStep":29,"isDrum":true,"velocity":100},{"pitch":45,"quantizedStartStep":28,"quantizedEndStep":29,"isDrum":true,"velocity":100},{"pitch":50,"quantizedStartStep":28,"quantizedEndStep":29,"isDrum":true,"velocity":100},{"pitch":42,"quantizedStartStep":30,"quantizedEndStep":31,"isDrum":true,"velocity":100},{"pitch":46,"quantizedStartStep":30,"quantizedEndStep":31,"isDrum":true,"velocity":100},{"pitch":48,"quantizedStartStep":30,"quantizedEndStep":31,"isDrum":true,"velocity":100},{"pitch":50,"quantizedStartStep":30,"quantizedEndStep":31,"isDrum":true,"velocity":100},{"pitch":51,"quantizedStartStep":30,"quantizedEndStep":31,"isDrum":true,"velocity":100},{"pitch":36,"quantizedStartStep":31,"quantizedEndStep":32,"isDrum":true,"velocity":100},{"pitch":46,"quantizedStartStep":31,"quantizedEndStep":32,"isDrum":true,"velocity":100},{"pitch":48,"quantizedStartStep":31,"quantizedEndStep":32,"isDrum":true,"velocity":100},{"pitch":50,"quantizedStartStep":31,"quantizedEndStep":32,"isDrum":true,"velocity":100},{"pitch":49,"quantizedStartStep":31,"quantizedEndStep":32,"isDrum":true,"velocity":100}],"partInfos":[],"pitchBends":[],"quantizationInfo":{"stepsPerQuarter":4},"sectionAnnotations":[],"sectionGroups":[],"tempos":[{"qpm":120}],"textAnnotations":[],"timeSignatures":[],"totalQuantizedSteps":32}